<svg width="78" height="61" viewBox="0 0 78 61" fill="none" xmlns="http://www.w3.org/2000/svg">
<path fill-rule="evenodd" clip-rule="evenodd" d="M47.5054 47.3887L58.492 20.5229L48.6239 47.8199C48.5971 47.8939 48.5561 47.9619 48.503 48.0201C48.45 48.0782 48.386 48.1253 48.3148 48.1587C48.2436 48.1921 48.1664 48.2112 48.0878 48.2148C48.0092 48.2184 47.9307 48.2065 47.8567 48.1797C47.7827 48.153 47.7147 48.1119 47.6565 48.0589C47.5984 48.0059 47.5513 47.9419 47.5179 47.8707C47.4845 47.7994 47.4654 47.7223 47.4618 47.6437C47.4582 47.5651 47.4701 47.4865 47.4969 47.4125L47.5054 47.3887Z" fill="#010202"/>
<path d="M33.3939 48.4587C33.3939 48.4587 23.8018 46.0856 20.3836 42.1925C16.9673 38.2974 11.4569 32.7908 11.9319 9.52403C11.9319 9.52403 15.5414 5.82123 34.7236 16.1719M48.2936 46.9709C47.7225 48.3958 49.5367 58.7142 49.5367 58.7142C49.5367 58.7142 42.1302 53.872 38.4274 44.9453C34.7227 36.0186 36.1486 34.2148 36.4332 28.9918C36.7169 23.7679 41.5257 15.6179 44.3623 12.8956C46.406 10.9328 53.2481 5.77553 56.9623 3.00843C57.2786 2.77328 57.6394 2.60505 58.0229 2.51401C58.4063 2.42296 58.8043 2.41101 59.1925 2.47889C59.5807 2.54677 59.951 2.69305 60.2808 2.9088C60.6106 3.12455 60.8929 3.40525 61.1106 3.73376C65.415 10.1684 67.8766 17.7387 67.7157 25.4794C67.6205 30.0703 66.6068 34.6993 63.6169 37.7615C63.6169 37.7615 56.5654 44.5655 50.8665 45.2299C45.1695 45.8943 48.9494 56.2945 48.9494 56.2945L48.2936 46.9709Z" stroke="#010202" stroke-width="0.5" stroke-linecap="round" stroke-linejoin="round"/>
<path fill-rule="evenodd" clip-rule="evenodd" d="M23.3448 19.8471C24.7544 21.244 26.1011 22.7031 27.3808 24.22C28.0223 24.9786 28.7029 25.7173 29.2093 26.5902C29.6738 27.4659 30.2221 28.3949 30.2069 29.461C30.2068 29.4706 30.2034 29.4798 30.1975 29.4873C30.1915 29.4947 30.1832 29.5 30.1739 29.5021C30.1646 29.5043 30.1548 29.5034 30.1461 29.4994C30.1375 29.4954 30.1304 29.4886 30.126 29.4801L30.1231 29.4725C29.6738 28.5958 29.0808 27.8447 28.4954 27.0642C27.9157 26.2837 27.4017 25.4479 26.8401 24.6398C25.6858 23.0371 24.4992 21.4579 23.281 19.9032C23.2775 19.8988 23.2749 19.8938 23.2733 19.8883C23.2718 19.8829 23.2714 19.8772 23.2721 19.8716C23.2728 19.866 23.2746 19.8606 23.2775 19.8557C23.2803 19.8509 23.2841 19.8466 23.2887 19.8433C23.2968 19.8368 23.3071 19.8336 23.3175 19.8343C23.3279 19.835 23.3376 19.8396 23.3448 19.8471Z" fill="#010202"/>
</svg>
